<svg xmlns="http://www.w3.org/2000/svg" width="1118" height="250" viewBox="0 0 1118 250">
  <g id="Richpanel_Logo_Horizontal_Color" transform="translate(-41 -108)">
    <path id="Ellipse_1_copy_3" data-name="Ellipse 1 copy 3" d="M271.185,358H60.262A19.284,19.284,0,0,1,41,338.7v-211.4A19.284,19.284,0,0,1,60.262,108H271.185a19.284,19.284,0,0,1,19.263,19.305V338.7A19.284,19.284,0,0,1,271.185,358Z" fill="#0e5394" fill-rule="evenodd"/>
    <path id="Ellipse_6_copy_3" data-name="Ellipse 6 copy 3" d="M193.9,167.689a7.708,7.708,0,0,1-15,2.439,14.056,14.056,0,1,0-12.439,20.521,13.909,13.909,0,0,0,7.42-2.148,7.72,7.72,0,0,1,1.4-.991q.254-.2.5-.417l.063.142a7.654,7.654,0,1,1,6.221,13.986l.074.167a29.583,29.583,0,0,1-41.084-9.913,57.142,57.142,0,0,0-31.884,44.9s-1.372,7.62-9.347,7.62a8.931,8.931,0,0,1-8.971-8.89c0-1.431.373-6.843.98-8.041,4.077-25.987,21.611-44.366,45.329-53.512a29.525,29.525,0,0,1,56.074-9.051l-.028.021a7.56,7.56,0,0,1,.692,3.167Zm22.914,135.045a7.728,7.728,0,0,1,5.392-14.239,14.073,14.073,0,1,0-13.368-13.542A7.676,7.676,0,0,1,209,276.66c.033.214.07.428.112.64l-.154-.016a7.747,7.747,0,0,1-1,3.092,7.618,7.618,0,0,1-14.2-4.686l-.182-.019a29.668,29.668,0,0,1,29.108-30.7,57.2,57.2,0,0,0-22.854-50.122s-5.9-5-1.911-11.923a8.911,8.911,0,0,1,12.168-3.341c1.237.716,5.726,3.745,6.458,4.87,20.417,16.532,27.532,40.941,23.577,66.1A29.609,29.609,0,0,1,219.9,303.749v-.035a7.517,7.517,0,0,1-3.092-.98ZM87.42,255.548a7.722,7.722,0,0,1,9.608,11.8,14.157,14.157,0,0,0-.193,14.507,13.948,13.948,0,1,0,18.578-19.338,7.714,7.714,0,0,1-1.554-.715c-.2-.079-.4-.154-.609-.223l.091-.126a7.731,7.731,0,0,1,.582-12.919,7.616,7.616,0,0,1,8.393.527l.107-.149A29.716,29.716,0,0,1,134.4,289.527a56.916,56.916,0,0,0,54.738,5.225s7.271-2.619,11.258,4.3a8.952,8.952,0,0,1-3.2,12.232c-1.236.715-6.1,3.1-7.437,3.17-24.494,9.455-49.144,3.426-68.906-12.587A29.586,29.586,0,0,1,85,257.726l.032.015a7.533,7.533,0,0,1,2.388-2.193Z" fill="#fff" fill-rule="evenodd"/>
    <path id="Richpanel" d="M453,183.929q-11.181-8.862-37.4-8.865H372.977V287.74h25.092V251.793h17.37L440.37,287.74h30.881l-28.469-40.3q21.39-7.9,21.392-34.98Q464.174,192.8,453,183.929Zm-36.592,46.1H398.069V196.664h18.818q12.063,0,16.888,3.385t4.825,12.493q0,9.109-4.664,13.3t-17.536,4.19h0Zm94.414-29.016h-24.13V287.74h24.126V201.016Zm-12.063-6.931a14.021,14.021,0,1,0-10.053-4.111,13.653,13.653,0,0,0,10.049,4.114Zm60.394,67.38q-6.837-6.124-6.835-17.167t6.835-17.248a23.461,23.461,0,0,1,16.326-6.206,29.865,29.865,0,0,1,22.2,10.477l12.545-16.442a47.8,47.8,0,0,0-16.808-11.445,50.166,50.166,0,0,0-18.9-3.868,46.057,46.057,0,0,0-32.249,12.492q-13.593,12.5-13.591,32.4T542.1,276.7q13.428,12.332,32.892,12.332t36.189-17.409L596.867,255.5q-9.651,12.09-21.714,12.09a23.209,23.209,0,0,1-16-6.125ZM656.777,225.6a17.54,17.54,0,0,1,12.623-5.24q14.635,0,14.637,19.988V287.74h24.126V235.029q0-16.118-9.329-25.792a30.605,30.605,0,0,0-22.919-9.671q-13.595,0-24.529,11.122V168.132H627.263V287.74h24.126V240.993Q651.389,230.838,656.777,225.6Zm97.388-14.911v-9.672H730.039v118h24.126V276.3q9.651,12.736,25.494,12.735t27.664-12.9q11.821-12.894,11.822-32.078T807.323,212.22q-11.821-12.654-26.941-12.654t-26.217,11.122h0Zm5.549,16.2q5.869-7.011,14.4-7.012t14.636,7.093q6.111,7.1,6.112,17.571t-6.273,17.167q-6.273,6.692-14.636,6.69a18.263,18.263,0,0,1-14.235-6.69q-5.873-6.687-5.87-17.248t5.866-17.572Zm150.947,5.562q0-17.085-9.972-24.986t-25.735-7.9a64.443,64.443,0,0,0-38.923,12.412l10.776,15.636a43.072,43.072,0,0,1,11.822-6.206,39.5,39.5,0,0,1,13.269-2.5q14.634,0,14.637,13.863v.484H868.521q-16.731,0-26.378,6.609t-9.651,19.908q0,13.3,9.329,21.278T864.9,289.03q13.752,0,23.08-11.768V287.74h22.679V232.45Zm-29.193,32.8a17.555,17.555,0,0,1-11.339,3.95q-6.435,0-9.892-2.5a8.3,8.3,0,0,1-3.458-7.173q0-9.025,14.476-9.027h15.119v4.2a12.859,12.859,0,0,1-4.906,10.553Zm80.742-41.266a17.536,17.536,0,0,1,12.626-5.239q14.634,0,14.636,19.988v49H1013.6V235.029q0-16.118-9.25-25.792a30.442,30.442,0,0,0-22.92-9.671q-13.672,0-24.609,11.122v-9.672H932.7V287.74h24.126V239.381q-.005-10.155,5.384-15.394Zm134.7,36.511q-8.2,8.546-20.91,8.543a23.628,23.628,0,0,1-14.15-4.513,17.248,17.248,0,0,1-7.4-11.606h63.05v-12.9q0-18.86-12.47-29.66t-30.31-10.8a44.167,44.167,0,0,0-30.97,12.089q-13.11,12.09-13.1,32.562t12.86,32.642q12.87,12.174,32.57,12.171t34.34-13.863Zm-3.86-24.824h-37.96a16.676,16.676,0,0,1,6.92-11.768,21.726,21.726,0,0,1,13.11-4.352,18.231,18.231,0,0,1,12.14,4.191q4.98,4.194,5.79,11.929h0Zm65.95-67.54h-24.13V287.74H1159Z" fill="#0e5394" fill-rule="evenodd"/>
  </g>
</svg>
